<svg width="18" height="18" viewBox="0 0 18 18" fill="none" xmlns="http://www.w3.org/2000/svg">
  <path d="M0.735429 2.48145C0.629393 3.41919 1.21262 5.51763 3.81066 5.51763" stroke="#0095FF" stroke-width="1.44764" stroke-linecap="round"></path>
  <path d="M13.6355 5.47767C14.7331 5.65283 16.7479 4.69739 16.6439 2.48926" stroke="#0095FF" stroke-width="1.44764" stroke-linecap="round"></path>
  <path d="M16.6413 16.645C16.6944 15.7108 15.9203 13.5982 13.639 13.4814" stroke="#0095FF" stroke-width="1.44764" stroke-linecap="round"></path>
  <path d="M3.77739 13.5176C3.06833 13.3052 0.735397 14.2819 0.735397 16.6387" stroke="#0095FF" stroke-width="1.44764" stroke-linecap="round"></path>
  <path d="M6.32382 3.4838C6.34503 2.58144 6.7798 0.723633 8.68854 0.723633C10.3852 0.723633 10.9738 2.1568 11.0533 3.4838M3.60914 6.4032C3.71518 5.71316 4.5211 4.09953 6.35563 3.94029C8.21135 3.87022 10.7564 3.89782 11.2336 3.97213C11.8592 4.02781 13.3704 4.65156 13.7733 6.4032C13.9165 7.30553 13.8423 8.57945 13.8634 9.32257C13.8316 10.0657 13.9238 11.5727 13.7786 12.3481C13.6726 13.1974 13.0999 14.4076 12.3152 15.1508C11.1487 16.4035 7.9463 17.7198 5.17856 15.2782C3.74699 13.8981 3.65155 12.5605 3.54551 12.0297C3.51708 11.7451 3.51841 10.3466 3.5243 9.00409C3.50309 7.8427 3.53044 6.72327 3.60914 6.4032Z" fill="#D7E0FF"></path>
  <path d="M6.32382 3.4838C6.34503 2.58144 6.7798 0.723633 8.68854 0.723633C10.3852 0.723633 10.9738 2.1568 11.0533 3.4838M3.60914 6.4032C3.71518 5.71316 4.5211 4.09953 6.35563 3.94029C8.21135 3.87022 10.7564 3.89782 11.2336 3.97213C11.8592 4.02781 13.3704 4.65156 13.7733 6.4032C13.9165 7.30553 13.8423 8.57945 13.8634 9.32257C13.8316 10.0657 13.9238 11.5727 13.7786 12.3481C13.6726 13.1974 13.0999 14.4076 12.3152 15.1508C11.1487 16.4035 7.9463 17.7198 5.17856 15.2782C3.74699 13.8981 3.65155 12.5605 3.54551 12.0297C3.51708 11.7451 3.51841 10.3466 3.5243 9.00409C3.50309 7.8427 3.53044 6.72327 3.60914 6.4032Z" stroke="#003077" stroke-width="1.44764"></path>
  <path d="M0.735397 9.47363H3.33344" stroke="#0095FF" stroke-width="1.44764" stroke-linecap="round"></path>
  <path d="M16.6415 9.47363H14.0965" stroke="#0095FF" stroke-width="1.44764" stroke-linecap="round"></path>
  <path d="M8.68852 12.6611V16.0052" stroke="#0095FF" stroke-width="1.44764" stroke-linecap="round"></path>
</svg>
